<svg xmlns="http://www.w3.org/2000/svg" width="310.394" height="310.257" viewBox="0 0 310.394 310.257">
  <g id="Icon" transform="translate(-0.001 0)">
    <g id="Zmogai" transform="translate(87.165 97.177)">
      <circle id="Ellipse_3" data-name="Ellipse 3" cx="16.248" cy="16.248" r="16.248" transform="translate(51.741 0)"/>
      <circle id="Ellipse_4" data-name="Ellipse 4" cx="11.343" cy="11.343" r="11.343" transform="translate(11.889 19.007)"/>
      <circle id="Ellipse_5" data-name="Ellipse 5" cx="11.343" cy="11.343" r="11.343" transform="translate(100.177 19.007)"/>
      <path id="Path_2" data-name="Path 2" d="M32.8,0C50.917,0,65.6,23.47,65.6,52.421c0,14.91-10.245,38.06-10.245,38.06s-10.651-6.3-22.815-6.3-21.575,7.368-21.575,7.368S0,68.056,0,52.421C0,23.47,14.686,0,32.8,0Z" transform="translate(34.574 33.108)"/>
      <path id="Path_3" data-name="Path 3" d="M23.232,0c12.83,0,23.232,16.549,23.232,36.962C46.469,50.724,39.207,63.8,39.207,63.8s-7.541-4.445-16.158-4.445a27.493,27.493,0,0,0-15.28,5.2S.315,51.21,0,36.962C0,16.549,10.4,0,23.232,0Z" transform="translate(87.675 42.315)"/>
      <path id="Path_4" data-name="Path 4" d="M23.232,0c12.83,0,23.232,16.549,23.232,36.962C46.469,50.724,39.207,63.8,39.207,63.8s-7.541-4.445-16.158-4.445a27.493,27.493,0,0,0-15.28,5.2S.315,51.21,0,36.962C0,16.549,10.4,0,23.232,0Z" transform="translate(0 42.315)"/>
    </g>
    <g id="Ratas">
      <g id="I_Raidė" data-name="I Raidė" transform="translate(-74.618 42.355)" fill="none">
        <path d="M345.617,21.052m.495-10.887s38.817,40.448,38.9,102.974-38.619,101.887-38.619,101.887l-33.579-33.357s4.473-5.67,6.438-8.579a107.763,107.763,0,0,0,0-120.664c-2.093-3.1-6.642-8.824-6.642-8.824Z" stroke="none"/>
        <path d="M 345.3403625488281 25.06350708007813 L 325.8783874511719 44.48770141601563 C 326.4995422363281 45.33526611328125 327.0748901367188 46.14173889160156 327.537841796875 46.82742309570313 C 354.5995483398438 86.87870788574219 354.5995483398438 138.6372833251953 327.5385437011719 178.6875 C 327.1336059570313 179.2869873046875 326.6293640136719 179.9962768554688 326.0790405273438 180.7509155273438 L 345.6783447265625 200.2206573486328 C 355.9913330078125 186.4437255859375 375.06787109375 155.2576446533203 375.011962890625 113.1522827148438 C 374.9559326171875 70.95547485351563 355.7191162109375 39.15309143066406 345.3403625488281 25.06350708007813 M 346.1119689941406 10.16499328613281 C 346.1119689941406 10.16499328613281 384.928955078125 50.61299133300781 385.011962890625 113.1389999389648 C 385.094970703125 175.6649627685547 346.3929748535156 215.0260009765625 346.3929748535156 215.0260009765625 L 312.81396484375 181.6690063476563 C 312.81396484375 181.6690063476563 317.2869567871094 175.9989929199219 319.251953125 173.0899963378906 C 343.8810424804688 136.6390075683594 343.8810424804688 88.87699890136719 319.251953125 52.42599487304688 C 317.1589660644531 49.32600402832031 312.6099548339844 43.60198974609375 312.6099548339844 43.60198974609375 L 346.1119689941406 10.16499328613281 Z" stroke="none" fill="#000"/>
      </g>
      <path id="Raudona_Apacia" data-name="Raudona Apacia" d="M108.289,333.556a108.792,108.792,0,0,1-21.78-2.2,107.312,107.312,0,0,1-38.55-16.23c-5.714-3.863-15.971-13.177-15.971-13.177l-33.38,33.428s37.976,42.513,103.017,45.257c65.307,2.925,106.627-36.414,106.627-36.414l-33.51-33.51s-3.96,2.958-6.12,4.414a107.479,107.479,0,0,1-60.332,18.431Z" transform="translate(46.865 -70.532)" fill="#db2f36"/>
      <path id="Zalia_Kaire" data-name="Zalia Kaire" d="M3.293,184.531s-9.32-10.257-13.178-15.971a107.765,107.765,0,0,1,0-120.661C-6.022,42.185,3.293,31.928,3.293,31.928L-30.129-1.549S-76.276,39.918-75.55,110.135c.38,67.627,45.514,107.8,45.514,107.8Z" transform="translate(75.559 46.888)" fill="#065e4d"/>
      <path id="Geltona_Top" data-name="Geltona Top" d="M31.959,3.316A107.561,107.561,0,0,1,86.514-26.1a108.969,108.969,0,0,1,43.5,0A107.312,107.312,0,0,1,168.593-9.861c1.886,1.274,3.734,2.61,5.687,4.118l33.634-33.521S167.465-77.51,103.771-75.414C38.346-73.963-1.462-30.159-1.462-30.159Z" transform="translate(46.892 75.497)" fill="#ff0"/>
    </g>
  </g>
</svg>
