<svg width="122" height="38" viewBox="0 0 122 38" fill="none" xmlns="http://www.w3.org/2000/svg">
<path d="M18.9963 15.8761C20.0915 15.8761 20.9795 14.988 20.9795 13.8924C20.9795 12.7968 20.0915 11.9087 18.9963 11.9087C17.901 11.9087 17.0131 12.7968 17.0131 13.8924C17.0131 14.988 17.901 15.8761 18.9963 15.8761Z" fill="black"/>
<path d="M13.5118 17.0027C14.2758 17.0027 14.8952 16.3832 14.8952 15.619C14.8952 14.8548 14.2758 14.2353 13.5118 14.2353C12.7478 14.2353 12.1285 14.8548 12.1285 15.619C12.1285 16.3832 12.7478 17.0027 13.5118 17.0027Z" fill="black"/>
<path d="M24.3214 17.0027C25.0854 17.0027 25.7047 16.3832 25.7047 15.619C25.7047 14.8548 25.0854 14.2353 24.3214 14.2353C23.5574 14.2353 22.938 14.8548 22.938 15.619C22.938 16.3832 23.5574 17.0027 24.3214 17.0027Z" fill="black"/>
<path d="M18.9228 15.9618C21.1386 15.9618 22.9381 18.8394 22.9381 22.3783C22.9381 24.2028 21.6894 27.0436 21.6894 27.0436C21.6894 27.0436 20.3796 26.2722 18.8983 26.2722C17.417 26.2722 16.254 27.1783 16.254 27.1783C16.254 27.1783 14.9074 24.3007 14.9074 22.3905C14.9074 18.8394 16.707 15.9618 18.9228 15.9618Z" fill="black"/>
<path d="M24.2479 17.0884C25.8148 17.0884 27.088 19.1088 27.088 21.6191C27.088 23.3089 26.1943 24.9007 26.1943 24.9007C26.1943 24.9007 25.2762 24.362 24.2111 24.362C23.5378 24.3865 22.889 24.6069 22.3381 24.9987C22.3381 24.9987 21.42 23.3701 21.3832 21.6191C21.4077 19.1211 22.6809 17.0884 24.2479 17.0884Z" fill="black"/>
<path d="M13.5118 17.0884C15.0787 17.0884 16.3519 19.1088 16.3519 21.6191C16.3519 23.3089 15.4582 24.9007 15.4582 24.9007C15.4582 24.9007 14.5401 24.362 13.475 24.362C12.8017 24.3865 12.1529 24.6069 11.602 24.9987C11.602 24.9987 10.6839 23.3701 10.6472 21.6191C10.6716 19.1211 11.9448 17.0884 13.5118 17.0884Z" fill="black"/>
<path d="M29.8027 10.5699L33.213 7.16888C33.3172 7.29448 33.4422 7.44996 33.5828 7.63412C34.0152 8.20054 34.5945 9.03672 35.1747 10.1078C36.3358 12.2512 37.494 15.3227 37.5 19.0512C37.5059 22.7791 36.357 25.8158 35.2032 27.9237C34.6266 28.9773 34.0502 29.7961 33.6199 30.3495C33.4806 30.5286 33.3568 30.6798 33.2533 30.8019L29.8273 27.3954C29.8391 27.3798 29.8512 27.364 29.8635 27.348C30.0289 27.1309 30.2337 26.8562 30.3612 26.6619C33.4847 22.0239 33.4841 15.9635 30.3594 11.326L30.3587 11.325C30.2212 11.1219 30.0112 10.8422 29.8414 10.6204C29.8283 10.6032 29.8154 10.5864 29.8027 10.5699Z" stroke="black"/>
<path d="M19.0005 32.2138C18.1068 32.2138 17.2132 32.1281 16.3317 31.9444C14.6424 31.6016 13.0387 30.9281 11.6064 29.9607C10.9086 29.4832 9.64765 28.3444 9.64765 28.3444L5.55884 32.4342C5.55884 32.4342 10.2108 37.6384 18.168 37.9812C26.162 38.3364 31.218 33.524 31.218 33.524L27.1169 29.4219C27.1169 29.4219 26.6272 29.7893 26.3701 29.9607C24.2033 31.4301 21.6325 32.2261 19.0005 32.2138Z" fill="#DB2F36"/>
<path d="M9.65986 28.3444C9.65986 28.3444 8.52136 27.0832 8.04392 26.3852C5.02016 21.928 5.02016 16.0749 8.04392 11.6176C8.52136 10.9197 9.65986 9.65844 9.65986 9.65844L5.55881 5.55634C5.55881 5.55634 -0.0847275 10.638 0.000966117 19.2341C0.0499339 27.5118 5.57105 32.4343 5.57105 32.4343L9.65986 28.3444Z" fill="#065E4D"/>
<path d="M9.65989 9.65841C11.4839 7.8339 13.8099 6.57265 16.344 6.05836C18.1068 5.70325 19.9064 5.70325 21.6692 6.05836C23.3586 6.40122 24.9623 7.0747 26.3946 8.04206C26.6272 8.20125 26.8476 8.36044 27.0924 8.54411L31.2057 4.44201C31.2057 4.44201 26.26 -0.23561 18.4619 0.00929155C10.4311 0.192968 5.55884 5.55631 5.55884 5.55631L9.65989 9.65841Z" fill="#FFFF00"/>
<path d="M45.9594 3.9375V21H43.6977V3.9375H45.9594ZM49.9639 12.7031L52.3194 9.46875L48.7803 8.41406L49.3311 6.65625L52.8702 7.95703L52.7647 3.92578H54.5459L54.4287 8.02734L57.9209 6.72656L58.46 8.51953L54.8623 9.58594L57.1709 12.7617L55.7178 13.8516L53.5498 10.4766L51.4287 13.7695L49.9639 12.7031ZM71.9684 19.1602V21H62.9333V19.1602H71.9684ZM63.3903 3.9375V21H61.1286V3.9375H63.3903ZM70.7731 11.2734V13.1133H62.9333V11.2734H70.7731ZM71.8512 3.9375V5.78906H62.9333V3.9375H71.8512ZM81.4456 5.44922L75.7972 21H73.4886L79.9925 3.9375H81.4808L81.4456 5.44922ZM86.18 21L80.5198 5.44922L80.4847 3.9375H81.973L88.5003 21H86.18ZM85.887 14.6836V16.5352H76.3011V14.6836H85.887ZM91.1455 3.9375H96.7939C98.0752 3.9375 99.1572 4.13281 100.04 4.52344C100.931 4.91406 101.606 5.49219 102.067 6.25781C102.536 7.01563 102.77 7.94922 102.77 9.05859C102.77 9.83984 102.61 10.5547 102.29 11.2031C101.977 11.8438 101.524 12.3906 100.931 12.8438C100.345 13.2891 99.6416 13.6211 98.8212 13.8398L98.1884 14.0859H92.8798L92.8564 12.2461H96.8642C97.6767 12.2461 98.3525 12.1055 98.8916 11.8242C99.4306 11.5352 99.8369 11.1484 100.11 10.6641C100.384 10.1797 100.52 9.64453 100.52 9.05859C100.52 8.40234 100.392 7.82812 100.134 7.33594C99.8759 6.84375 99.4697 6.46484 98.915 6.19922C98.3681 5.92578 97.6611 5.78906 96.7939 5.78906H93.4072V21H91.1455V3.9375ZM101.118 21L96.9697 13.2656L99.3252 13.2539L103.532 20.8594V21H101.118ZM119.42 3.9375V21H117.146L108.556 7.83984V21H106.295V3.9375H108.556L117.181 17.1328V3.9375H119.42Z" fill="black"/>
<path d="M49.9972 35.0801V36H44.2198V35.0801H49.9972ZM49.8097 28.2891L44.4894 36H43.7921V35.1562L49.1066 27.4688H49.8097V28.2891ZM49.3292 27.4688V28.3945H43.8683V27.4688H49.3292ZM46.0011 25.1836L46.8859 26.1797L47.7706 25.1836H48.7081V25.2422L47.2198 26.8477H46.5519L45.087 25.2422V25.1836H46.0011ZM53.9783 27.4688V36H52.8474V27.4688H53.9783ZM62.7523 35.0801V36H58.2348V35.0801H62.7523ZM58.4633 27.4688V36H57.3324V27.4688H58.4633ZM62.1547 31.1367V32.0566H58.2348V31.1367H62.1547ZM62.6938 27.4688V28.3945H58.2348V27.4688H62.6938ZM71.1748 35.0801V36H65.3975V35.0801H71.1748ZM70.9873 28.2891L65.667 36H64.9698V35.1562L70.2842 27.4688H70.9873V28.2891ZM70.5069 27.4688V28.3945H65.0459V27.4688H70.5069ZM67.1788 25.1836L68.0635 26.1797L68.9483 25.1836H69.8858V25.2422L68.3975 26.8477H67.7295L66.2647 25.2422V25.1836H67.1788ZM74.3005 27.4688H75.3962L78.1911 34.4238L80.9802 27.4688H82.0817L78.613 36H77.7575L74.3005 27.4688ZM73.943 27.4688H74.9098L75.068 32.6719V36H73.943V27.4688ZM81.4665 27.4688H82.4333V36H81.3083V32.6719L81.4665 27.4688ZM88.9808 28.2246L86.1566 36H85.0023L88.2542 27.4688H88.9984L88.9808 28.2246ZM91.348 36L88.5179 28.2246L88.5003 27.4688H89.2445L92.5081 36H91.348ZM91.2015 32.8418V33.7676H86.4085V32.8418H91.2015ZM94.9482 27.4688H97.7724C98.413 27.4688 98.9541 27.5664 99.3955 27.7617C99.8408 27.957 100.179 28.2461 100.409 28.6289C100.644 29.0078 100.761 29.4746 100.761 30.0293C100.761 30.4199 100.681 30.7773 100.52 31.1016C100.364 31.4219 100.138 31.6953 99.8408 31.9219C99.5478 32.1445 99.1963 32.3105 98.7861 32.4199L98.4697 32.543H95.8154L95.8037 31.623H97.8076C98.2138 31.623 98.5517 31.5527 98.8213 31.4121C99.0908 31.2676 99.2939 31.0742 99.4306 30.832C99.5673 30.5898 99.6357 30.3223 99.6357 30.0293C99.6357 29.7012 99.5713 29.4141 99.4423 29.168C99.3134 28.9219 99.1103 28.7324 98.833 28.5996C98.5595 28.4629 98.206 28.3945 97.7724 28.3945H96.0791V36H94.9482V27.4688ZM99.9345 36L97.8603 32.1328L99.038 32.127L101.142 35.9297V36H99.9345ZM104.853 27.4688V36H103.722V27.4688H104.853ZM111.471 28.2246L108.647 36H107.492L110.744 27.4688H111.489L111.471 28.2246ZM113.838 36L111.008 28.2246L110.99 27.4688H111.735L114.998 36H113.838ZM113.692 32.8418V33.7676H108.899V32.8418H113.692ZM118.651 27.4688V36H117.52V27.4688H118.651Z" fill="black"/>
</svg>
