<?xml version="1.0" encoding="utf-8"?>
<!-- Generator: Adobe Illustrator 25.1.0, SVG Export Plug-In . SVG Version: 6.00 Build 0)  -->
<svg version="1.1" id="Layer_1" xmlns="http://www.w3.org/2000/svg" xmlns:xlink="http://www.w3.org/1999/xlink" x="0px" y="0px"
	 viewBox="0 0 1052.4 375.6" style="enable-background:new 0 0 1052.4 375.6;" xml:space="preserve">
<style type="text/css">
	.st0{fill:#DB2F36;}
	.st1{fill:#065E4D;}
	.st2{fill:#FFFF00;}
	.st3{enable-background:new    ;}
</style>
<g id="SVG" transform="translate(-181.441 -208.558)">
	<g id="Icon" transform="translate(181.441 237.503)">
		<g id="Zmogai" transform="translate(87.165 97.177)">
			<circle id="Ellipse_3" cx="68" cy="-12.7" r="16.2"/>
			<circle id="Ellipse_4" cx="23.2" cy="1.4" r="11.3"/>
			<circle id="Ellipse_5" cx="111.5" cy="1.4" r="11.3"/>
			<path id="Path_2" d="M67.4,4.2c18.1,0,32.8,23.5,32.8,52.4c0,14.9-10.2,38.1-10.2,38.1s-10.7-6.3-22.8-6.3s-21.6,7.4-21.6,7.4
				s-11-23.5-11-39.1C34.6,27.7,49.3,4.2,67.4,4.2z"/>
			<path id="Path_3" d="M110.9,13.4c12.8,0,23.2,16.5,23.2,37c0,13.8-7.3,26.8-7.3,26.8s-7.5-4.4-16.2-4.4c-5.5,0.2-10.8,2-15.3,5.2
				c0,0-7.5-13.3-7.8-27.6C87.7,30,98.1,13.4,110.9,13.4z"/>
			<path id="Path_4" d="M23.2,13.4c12.8,0,23.2,16.5,23.2,37c0,13.8-7.3,26.8-7.3,26.8s-7.5-4.4-16.2-4.4c-5.5,0.2-10.8,2-15.3,5.2
				c0,0-7.5-13.3-7.8-27.6C0,30,10.4,13.4,23.2,13.4z"/>
		</g>
		<g id="Ratas">
			<path id="I_Raidė" d="M271,34.5l-23.2,23.2c1.1,1.4,2.2,2.9,3,4.1c26.3,38.9,26.3,90,0,128.9c-0.7,1.1-1.7,2.5-2.8,3.8
				l23.3,23.2c9.9-12.6,31.8-45.6,31.7-91.1C303,81.1,281,47.4,271,34.5 M271.5,23.6c0,0,38.8,40.4,38.9,103s-38.6,101.9-38.6,101.9
				l-33.6-33.4c0,0,4.5-5.7,6.4-8.6c24.6-36.5,24.6-84.2,0-120.7c-2.1-3.1-6.6-8.8-6.6-8.8L271.5,23.6z"/>
			<path id="Raudona_Apacia" class="st0" d="M155.2,234.1c-7.3,0-14.6-0.7-21.8-2.2c-13.8-2.8-26.9-8.3-38.6-16.2
				c-5.7-3.9-16-13.2-16-13.2l-33.4,33.4c0,0,38,42.5,103,45.3c65.3,2.9,106.6-36.4,106.6-36.4l-33.5-33.5c0,0-4,3-6.1,4.4
				C197.7,227.7,176.7,234.2,155.2,234.1L155.2,234.1z"/>
			<path id="Zalia_Kaire" class="st1" d="M78.9,202.5c0,0-9.3-10.3-13.2-16C41,150.1,41,102.3,65.7,65.9c3.9-5.7,13.2-16,13.2-16
				L45.4,16.4c0,0-46.1,41.5-45.4,111.7c0.4,67.6,45.5,107.8,45.5,107.8L78.9,202.5z"/>
			<path id="Geltona_Top" class="st2" d="M78.9,49.9c14.9-14.9,33.9-25.2,54.6-29.4c14.4-2.9,29.1-2.9,43.5,0
				c13.8,2.8,26.9,8.3,38.6,16.2c1.9,1.3,3.7,2.6,5.7,4.1l33.6-33.5c0,0-40.4-38.2-104.1-36.2C85.2-27.4,45.4,16.4,45.4,16.4
				L78.9,49.9z"/>
		</g>
	</g>
	<g class="st3">
		<path d="M531.4,295.6l-40.5-13.2l3.9-12.3l40.5,15l-0.5-45.1h12.7l-1,45.5l39.6-15.5l4,12.3l-40.6,14l27.2,35.9l-10.4,7.7
			l-26.1-37.2l-24.9,37l-10.4-7.4L531.4,295.6z"/>
		<path d="M712,332.5h-83.1V405h95.6v12.7H613.9V240h110v12.7h-95v67.1H712V332.5z"/>
		<path d="M850,367.8h-80.7L751,417.7h-15.7L802.5,240h14.3l67.3,177.7h-15.6L850,367.8z M774,355.1h71.3l-35.6-96.8L774,355.1z"/>
		<path d="M974.6,343.6H923v74.1h-15.1V240h57.7c19,0,33.8,4.6,44.4,13.8c10.7,9.2,16,22,16,38.5c0,11.4-3.3,21.4-10,30.1
			c-6.7,8.7-15.6,14.7-26.9,18l44.4,75.7v1.6h-16L974.6,343.6z M923,330.9h46c12.6,0,22.7-3.6,30.4-10.8
			c7.6-7.2,11.5-16.5,11.5-27.9c0-12.5-4-22.3-12-29.2c-8-6.9-19.2-10.4-33.6-10.4H923V330.9z"/>
		<path d="M1197.2,417.7h-15L1080,265.6v152.1h-15.1V240h15.1l102.3,152.2V240h14.9V417.7z"/>
	</g>
	<g class="st3">
		<path d="M557.7,565.3h34.2v8.9h-47.6V567l33.1-47.8h-32.9v-9h46.4v7L557.7,565.3z M568.1,499.8l6.4-6.8h9.1v0.4l-12.3,12.3h-6.6
			l-12.2-12.3V493h9.1L568.1,499.8z"/>
		<path d="M632.2,574.2h-11.1v-64h11.1V574.2z"/>
		<path d="M702.2,545.6H676v19.7h30.7v8.9h-41.8v-64h41.5v9H676v17.7h26.3V545.6z"/>
		<path d="M745.2,565.3h34.2v8.9h-47.6V567l33.1-47.8H732v-9h46.4v7L745.2,565.3z M755.5,499.8l6.4-6.8h9.1v0.4l-12.3,12.3h-6.6
			L740,493.4V493h9.1L755.5,499.8z"/>
		<path d="M822.3,510.2l18.5,49l18.4-49h14.4v64h-11.1v-21.1l1.1-28.2l-18.9,49.3h-8l-18.9-49.3l1.1,28.2v21.1h-11.1v-64H822.3z"/>
		<path d="M942.3,559.3h-24.8l-5.2,14.9h-11.6l24.2-64h10l24.2,64h-11.6L942.3,559.3z M920.6,550.3h18.5l-9.3-26.5L920.6,550.3z"/>
		<path d="M1008.9,549.6h-12.4v24.6h-11.1v-64h22.5c7.4,0,13.1,1.7,17.1,5c4,3.3,6,8.1,6,14.4c0,4.3-1,7.9-3.1,10.8
			c-2.1,2.9-4.9,5.1-8.6,6.7l14.4,26.6v0.6h-11.9L1008.9,549.6z M996.5,540.6h11.4c3.8,0,6.7-0.9,8.8-2.8c2.1-1.9,3.2-4.5,3.2-7.8
			c0-3.4-1-6.1-2.9-8s-4.9-2.8-8.7-2.9h-11.7V540.6z"/>
		<path d="M1072.3,574.2h-11.1v-64h11.1V574.2z"/>
		<path d="M1141.5,559.3h-24.8l-5.2,14.9H1100l24.2-64h10l24.2,64h-11.6L1141.5,559.3z M1119.9,550.3h18.5l-9.3-26.5L1119.9,550.3z"
			/>
		<path d="M1196.3,574.2h-11.1v-64h11.1V574.2z"/>
	</g>
	<path class="st1" d="M347.7,584.1c-3.9,0-7-3.1-7-7s3.1-7,7-7c46.1,0,88.1-17.6,124.9-52.5c27.7-26.2,41.9-52.9,42-53.2l2-3.7
		l4.2,0c3.7,0,250.2-0.2,457.8-0.2c104.6,0,199.3,0,248.2,0.2c3.9,0,7,3.2,7,7c0,3.9-3.1,7-7,7c0,0,0,0,0,0
		c-139.3-0.4-650.7,0-701.9,0c-5,8.6-19,30.6-42.3,52.8C443.6,564.5,397,584.1,347.7,584.1z"/>
</g>
</svg>
